<svg width="10" height="11" viewBox="0 0 10 11" fill="none" xmlns="http://www.w3.org/2000/svg">
<g clip-path="url(#clip0_2_14)">
<path d="M4.16666 5.80303C4.3456 6.04225 4.57389 6.24018 4.83605 6.38342C5.09822 6.52665 5.38812 6.61182 5.68609 6.63316C5.98407 6.6545 6.28315 6.61151 6.56305 6.5071C6.84295 6.40269 7.09712 6.2393 7.30832 6.02803L8.55832 4.77803C8.93782 4.3851 9.14781 3.85885 9.14306 3.31261C9.13831 2.76636 8.91921 2.24384 8.53295 1.85757C8.14668 1.4713 7.62415 1.2522 7.07791 1.24745C6.53167 1.24271 6.00541 1.4527 5.61249 1.83219L4.89582 2.54469" stroke="#525252" stroke-linecap="round" stroke-linejoin="round"/>
<path d="M5.83332 4.96968C5.65439 4.73046 5.42609 4.53252 5.16393 4.38929C4.90176 4.24605 4.61186 4.16088 4.31389 4.13954C4.01591 4.1182 3.71683 4.16119 3.43693 4.2656C3.15703 4.37001 2.90286 4.5334 2.69166 4.74468L1.44166 5.99468C1.06216 6.3876 0.852174 6.91385 0.856921 7.4601C0.861668 8.00634 1.08077 8.52887 1.46704 8.91513C1.8533 9.3014 2.37583 9.5205 2.92207 9.52525C3.46832 9.53 3.99457 9.32001 4.38749 8.94051L5.09999 8.22801" stroke="#525252" stroke-linecap="round" stroke-linejoin="round"/>
</g>
<defs>
<clipPath id="clip0_2_14">
<rect width="10" height="10" fill="white" transform="translate(0 0.386353)"/>
</clipPath>
</defs>
</svg>
