<svg width="10" height="11" viewBox="0 0 10 11" fill="none" xmlns="http://www.w3.org/2000/svg">
<g clip-path="url(#clip0_2_19)">
<path d="M9.16666 7.43636V8.68636C9.16713 8.8024 9.14336 8.91726 9.09687 9.02358C9.05038 9.12991 8.9822 9.22535 8.89669 9.3038C8.81118 9.38225 8.71023 9.44197 8.6003 9.47915C8.49038 9.51633 8.3739 9.53013 8.25833 9.51969C6.97617 9.38037 5.74458 8.94225 4.66249 8.24052C3.65575 7.6008 2.80222 6.74726 2.16249 5.74052C1.45832 4.65353 1.02009 3.41594 0.883326 2.12802C0.872914 2.0128 0.886607 1.89667 0.923534 1.78703C0.960462 1.67739 1.01981 1.57664 1.09781 1.4912C1.17581 1.40575 1.27074 1.33749 1.37657 1.29074C1.4824 1.244 1.5968 1.2198 1.71249 1.21969H2.96249C3.1647 1.2177 3.36074 1.28931 3.51406 1.42116C3.66738 1.55302 3.76752 1.73613 3.79583 1.93636C3.84859 2.33638 3.94643 2.72916 4.08749 3.10719C4.14355 3.25633 4.15569 3.4184 4.12245 3.57422C4.08922 3.73004 4.01202 3.87307 3.89999 3.98636L3.37083 4.51552C3.96397 5.55867 4.82768 6.42238 5.87083 7.01552L6.39999 6.48636C6.51328 6.37433 6.65631 6.29713 6.81213 6.2639C6.96794 6.23066 7.13002 6.2428 7.27916 6.29886C7.65719 6.43992 8.04996 6.53776 8.44999 6.59052C8.65239 6.61908 8.83724 6.72103 8.96938 6.87698C9.10152 7.03293 9.17173 7.23201 9.16666 7.43636Z" stroke="#525252" stroke-linecap="round" stroke-linejoin="round"/>
</g>
<defs>
<clipPath id="clip0_2_19">
<rect width="10" height="10" fill="white" transform="translate(0 0.386353)"/>
</clipPath>
</defs>
</svg>
